<?xml version="1.0" encoding="UTF-8"?>
<svg xmlns="http://www.w3.org/2000/svg" xmlns:xlink="http://www.w3.org/1999/xlink" version="1.1" viewBox="0 0 24 24">
  <defs>
    <style>
      .cls-1 {
        fill: none;
      }

      .cls-2 {
        fill: #464646;
      }

      .cls-3 {
        clip-path: url(#clippath);
      }
    </style>
    <clipPath id="clippath">
      <rect class="cls-1" x="0" y="0" width="23.9" height="23.9"/>
    </clipPath>
  </defs>
  <!-- Generator: Adobe Illustrator 28.6.0, SVG Export Plug-In . SVG Version: 1.2.0 Build 709)  -->
  <g>
    <g id="_圖層_1">
      <g class="cls-3">
        <g>
          <path class="cls-2" d="M12.9,7.6c-.2,0-.4-.1-.5-.3l-3.5-5.3c-.2-.3-.1-.7.2-.9.3-.2.7-.1.9.2l3.5,5.3c.2.3.1.7-.2.9-.1,0-.2.1-.4.1h0s0,0,0,0Z"/>
          <path class="cls-2" d="M12.9,7.6c-.1,0-.3,0-.4-.1-.3-.2-.3-.6-.1-.9l3.3-4.2c.2-.3.6-.3.9-.1.3.2.3.6.1.9l-3.3,4.2c-.1.2-.3.2-.5.2h0Z"/>
          <path class="cls-2" d="M11.5,15.1c-.4,0-.6-.3-.6-.6v-3.5c0-.4.3-.6.6-.6s.6.3.6.6v3.5c0,.4-.3.6-.6.6Z"/>
          <path class="cls-2" d="M18.3,15.1c-.4,0-.6-.3-.6-.6v-3.1c0-.4.3-.6.6-.6s.6.3.6.6v3.1c0,.4-.3.6-.6.6Z"/>
          <path class="cls-2" d="M15,19.3c-1,0-1.8-.4-2.4-1.1-.2-.3-.2-.7.1-.9.3-.2.7-.2.9.1.3.4.8.6,1.4.6.6,0,1.1-.2,1.3-.6.2-.3.6-.4.9-.1.3.2.4.6.1.9-.5.7-1.4,1.1-2.3,1.1h0s0,0,0,0Z"/>
          <path class="cls-2" d="M10.6,6.8c0-1.2,1-2.1,2.2-2,1.1.1,2,1.2,2,2.3"/>
          <path class="cls-2" d="M7.4,23c-.4,0-.8-.2-1.1-.4-.3-.3-.5-.7-.5-1.1V7.6c0-.4.2-.9.5-1.2.3-.3.8-.5,1.2-.4l13.7,1.4c.8,0,1.4.8,1.4,1.6v11.7c0,.8-.7,1.5-1.5,1.6l-13.7.7h0s0,0,0,0h0ZM7.4,7.3c-.1,0-.2,0-.2,0,0,0-.1.1-.1.2v13.8c0,.1,0,.2,0,.2,0,0,.1,0,.2,0l13.7-.7c.2,0,.3-.1.3-.3v-11.7c0-.2-.1-.3-.3-.3l-13.7-1.4h0,0s0,0,0,0Z"/>
          <path class="cls-2" d="M7.2,22.9c0,0-.1,0-.1,0l-4.5-1.1c-.8-.2-1.3-.9-1.3-1.7v-9.8c0-.6.3-1.2.8-1.5l1.4-.8c.3-.2.7,0,.9.2s0,.7-.2.9l-1.3.8c-.1,0-.2.2-.2.4v9.8c0,.2.1.4.3.5l4.4,1.1c.3,0,.6.4.5.8,0,.3-.3.5-.6.5h0s0,0,0,0Z"/>
        </g>
      </g>
    </g>
  </g>
</svg>